<svg xmlns="http://www.w3.org/2000/svg" width="48" height="48" viewBox="0 0 48 48" fill="none">
<rect width="48" height="48" fill="#17D766"/>
<path d="M11.407 14.3993H30.4991V20.7986H17.9062C17.6818 20.7986 17.4991 20.9785 17.4991 21.1995V26.7988C17.4991 27.0198 17.6818 27.1997 17.9062 27.1997H30.4991V33.599H24.4053C24.1809 33.599 23.9983 33.7788 23.9983 33.9998V39.5992C23.9983 39.8201 24.1809 40 24.4053 40H30.0921C30.3165 40 30.4991 39.8201 30.4991 39.5992V33.599H36.5929C36.8174 33.599 37 33.4191 37 33.1981V27.5988C37 27.3778 36.8174 27.1979 36.5929 27.1979H30.4991V20.7986H36.5929C36.8174 20.7986 37 20.6188 37 20.3978V14.7984C37 14.5775 36.8174 14.3976 36.5929 14.3976H30.4991V8.40083C30.4991 8.17987 30.3165 8 30.0921 8H11.407C11.1826 8 11 8.17987 11 8.40083V14.0002C11 14.2212 11.1826 14.401 11.407 14.401V14.3993Z" fill="black"/>
</svg>