<svg width="48" height="48" viewBox="0 0 48 48" fill="none" xmlns="http://www.w3.org/2000/svg">
<path d="M5.58549 29.8157C2.51521 29.8278 0.0124381 27.2708 4.61825e-05 24.1089C-0.0123452 20.9472 2.47043 18.4018 5.51033 18.3898C8.5502 18.3778 11.053 20.9348 11.0652 24.0653C11.0775 27.1957 8.65577 29.8035 5.58549 29.8157ZM34.1774 3.00004C30.0735 3.01622 29.9052 6.58564 23.6429 6.61032C17.32 6.63524 16.7892 3.06858 13.0501 3.08332C9.97988 3.09542 7.52762 5.67208 7.5399 8.8025C7.55216 11.9329 10.0549 14.49 13.0949 14.4781C17.2291 14.4618 17.3974 10.8924 23.6596 10.8677C29.9825 10.8428 30.5134 14.4094 34.2525 14.3947C37.3228 14.3826 39.775 11.8059 39.7628 8.6755C39.7504 5.54506 37.2477 2.98794 34.1774 3.00004ZM34.2969 33.5217C30.1628 33.5381 29.9944 37.1074 23.7322 37.1321C17.4093 37.157 16.8784 33.5905 13.1394 33.6052C10.0691 33.6172 7.61685 36.1938 7.62911 39.3243C7.64139 42.4547 10.1442 45.012 13.184 45C17.3182 44.9836 17.4867 41.4141 23.7489 41.3895C30.0718 41.3645 30.6026 44.9312 34.3416 44.9165C37.4121 44.9045 39.8642 42.3277 39.8518 39.1973C39.8396 36.0667 37.3674 33.5097 34.2969 33.5217ZM42.445 18.2442C38.2804 18.2607 38.4471 22.0165 33.2183 22.0372C28.385 22.0561 28.3095 18.3311 23.6586 18.3494C20.7707 18.3608 18.4102 21.0937 18.4218 24.0676C18.4335 27.0414 20.8456 29.7555 23.9767 29.7432C28.1413 29.7267 27.9748 25.9709 33.2034 25.9502C38.0367 25.9313 38.1122 29.6563 42.7632 29.6379C45.651 29.6265 48.0115 26.8937 47.9999 23.9198C48.0185 20.9456 45.6064 18.2318 42.445 18.2442Z" fill="#04AFFF"/>
</svg>
