<svg width="48" height="48" viewBox="0 0 48 48" fill="none" xmlns="http://www.w3.org/2000/svg">
<path fill-rule="evenodd" clip-rule="evenodd" d="M30.951 0C31.7826 0 32.4489 0.676133 32.5285 1.50385C33.2376 8.88689 39.1131 14.7624 46.4961 15.4715C47.3239 15.551 48 16.2174 48 17.0489V30.9511C48 31.7826 47.3239 32.449 46.4961 32.5286C39.1131 33.2376 33.2376 39.1131 32.5285 46.4962C32.4489 47.3239 31.7826 48 30.951 48H17.049C16.2174 48 15.5511 47.3239 15.4715 46.4962C14.7625 39.1131 8.88688 33.2376 1.50384 32.5286C0.676136 32.449 0 31.7826 0 30.9511V17.0489C0 16.2174 0.67614 15.551 1.50385 15.4715C8.8869 14.7624 14.7625 8.88689 15.4715 1.50385C15.5511 0.676133 16.2174 0 17.049 0H30.951ZM9.63749 23.9594C9.63749 31.9458 16.1044 38.42 24.0819 38.42C32.0594 38.42 38.5264 31.9458 38.5264 23.9594C38.5264 15.973 32.0594 9.49869 24.0819 9.49869C16.1044 9.49869 9.63749 15.973 9.63749 23.9594Z" fill="#EC0648"/>
</svg>
