<svg width="48" height="48" viewBox="0 0 48 48" fill="none" xmlns="http://www.w3.org/2000/svg">
<path fill-rule="evenodd" clip-rule="evenodd" d="M29.5993 12L23.9973 25.5893L18.3902 12H14.7931L20.9389 26.8554C21.4487 28.0949 22.6442 28.8955 23.9763 28.8955C25.3085 28.8955 26.5014 28.0949 27.0138 26.8607L33.1965 12H29.5993ZM31.993 32.7044L42.2404 22.2166L40.8426 18.8784L29.6492 30.3557C28.7139 31.316 28.4458 32.7311 28.9635 33.9706C29.4785 35.1994 30.6687 35.9947 31.9957 35.9947L32.0009 36L48 35.9601L46.6022 32.622L31.9957 32.7044H31.993ZM5.75958 22.2086L7.15743 18.8704L18.3508 30.3478C19.2862 31.3054 19.5569 32.7257 19.0366 33.9625C18.5215 35.1941 17.3261 35.9867 16.0044 35.9867L0.0052551 35.9495L0 35.9548L1.39785 32.6167L16.0044 32.6992L5.75958 22.2086Z" fill="#6720FF"/>
</svg>
