<svg width="48" height="48" viewBox="0 0 48 48" fill="none" xmlns="http://www.w3.org/2000/svg">
<path d="M23.1043 0.240933L4.39573 11.3292C4.12217 11.4924 3.89557 11.7251 3.73844 12.0042C3.58132 12.2832 3.49912 12.599 3.50001 12.9202V35.078C3.50002 35.4007 3.58274 35.7179 3.7401 35.9986C3.89808 36.2758 4.12384 36.5073 4.39573 36.6709L23.1043 47.7517C23.3771 47.9132 23.6876 47.9983 24.0037 47.9983C24.3198 47.9983 24.6303 47.9132 24.9031 47.7517L43.6043 36.6765C43.878 36.5152 44.1043 36.2832 44.2599 36.0043C44.4178 35.7237 44.5006 35.4064 44.5 35.0837V12.9258C44.5005 12.6036 44.4178 12.2869 44.2599 12.007C44.1051 11.726 43.8787 11.492 43.6043 11.3292L24.8976 0.244668C24.6253 0.0844225 24.3159 0 24.0009 0C23.6859 0 23.3765 0.0844225 23.1043 0.244668V0.240933ZM20.057 37.1956L22.2732 27.5041C22.2898 27.4342 22.2898 27.3612 22.2732 27.2912C22.2518 27.2217 22.2152 27.1578 22.1661 27.1045L16.7714 21.7247C16.7314 21.6861 16.7005 21.6388 16.681 21.5865C16.6588 21.5359 16.6475 21.4812 16.6477 21.4259C16.6477 21.37 16.6591 21.3148 16.681 21.2635C16.7013 21.2121 16.7321 21.1656 16.7714 21.1271L27.2985 10.4011C27.3615 10.3386 27.4422 10.2975 27.5293 10.2835C27.5963 10.2752 27.6643 10.2836 27.7274 10.3079C27.7905 10.3323 27.8467 10.3719 27.8911 10.4233C27.9356 10.4747 27.9669 10.5363 27.9824 10.6027C27.9979 10.6692 27.997 10.7384 27.98 10.8045L25.7637 20.5147C25.7452 20.5844 25.7452 20.6578 25.7637 20.7275C25.7847 20.7928 25.8223 20.8514 25.8727 20.8975L31.2286 26.2474C31.2666 26.2876 31.2973 26.3344 31.3191 26.3856C31.3411 26.4361 31.3519 26.4909 31.3505 26.5462C31.35 26.6006 31.3394 26.6545 31.3191 26.7049C31.2975 26.7556 31.2668 26.8018 31.2286 26.8412L20.7311 37.5896C20.6672 37.651 20.5857 37.6902 20.4984 37.7017C20.4116 37.715 20.323 37.6978 20.2472 37.6531C20.1711 37.6112 20.1103 37.5457 20.0736 37.4664C20.0357 37.3802 20.0266 37.2838 20.0478 37.1919L20.057 37.1956Z" fill="url(#paint0_linear_3718_1024)"/>
<path d="M20.057 37.1956L22.2732 27.5041C22.2898 27.4342 22.2898 27.3612 22.2732 27.2912C22.2518 27.2217 22.2152 27.1578 22.1661 27.1045L16.7714 21.7247C16.7314 21.6861 16.7005 21.6388 16.681 21.5865C16.6588 21.5359 16.6475 21.4812 16.6477 21.4259C16.6477 21.37 16.6591 21.3148 16.681 21.2635C16.7013 21.2121 16.7321 21.1656 16.7714 21.1271L27.2985 10.4011C27.3615 10.3386 27.4422 10.2975 27.5293 10.2835C27.5963 10.2752 27.6643 10.2836 27.7274 10.3079C27.7905 10.3323 27.8467 10.3719 27.8911 10.4233C27.9356 10.4747 27.9669 10.5363 27.9824 10.6027C27.9979 10.6692 27.997 10.7384 27.98 10.8045L25.7637 20.5147C25.7452 20.5844 25.7452 20.6578 25.7637 20.7275C25.7847 20.7928 25.8223 20.8514 25.8727 20.8975L31.2286 26.2474C31.2666 26.2876 31.2973 26.3344 31.3191 26.3856C31.3411 26.4361 31.3519 26.4909 31.3505 26.5462C31.35 26.6006 31.3394 26.6545 31.3191 26.7049C31.2975 26.7556 31.2668 26.8018 31.2286 26.8412L20.7311 37.5896C20.6672 37.651 20.5857 37.6902 20.4984 37.7017C20.4116 37.715 20.323 37.6978 20.2472 37.6531C20.1711 37.6112 20.1103 37.5457 20.0736 37.4664C20.0357 37.3802 20.0266 37.2838 20.0478 37.1919L20.057 37.1956Z" fill="white"/>
<defs>
<linearGradient id="paint0_linear_3718_1024" x1="34.3719" y1="6.15667" x2="-6.22676" y2="74.4815" gradientUnits="userSpaceOnUse">
<stop stop-color="#792EE5"/>
<stop offset="1" stop-color="#3EABB3"/>
</linearGradient>
</defs>
</svg>
