<svg width="48" height="48" viewBox="0 0 48 48" fill="none" xmlns="http://www.w3.org/2000/svg">
<path d="M32.6201 29.8974C31.5015 28.7867 29.7573 28.6875 28.5233 29.5849L26.698 27.7774C27.125 27.2158 27.3833 26.5295 27.3833 25.7736C27.3833 23.9282 25.8718 22.4248 24.0038 22.4248C22.1337 22.4248 20.6222 23.9218 20.6222 25.7736C20.6222 27.6275 22.1401 29.1246 24.0038 29.1246C24.7638 29.1246 25.4577 28.8627 26.0234 28.4447L27.8487 30.2521C27.0503 31.3311 27.0375 32.7922 27.8124 33.8902L25.9914 35.6047C25.4513 35.212 24.7638 34.9691 24.0038 34.9691C22.266 34.9691 20.8549 36.2023 20.8549 37.7246C20.8549 39.247 22.266 40.4886 24.0038 40.4886C25.7395 40.4886 27.1506 39.2534 27.1506 37.7246C27.1506 37.1883 26.967 36.69 26.666 36.2656L28.4785 34.5637C29.7189 35.5181 31.5015 35.4548 32.6393 34.3251C33.8669 33.1089 33.8669 31.1262 32.6201 29.8974Z" fill="url(#paint0_linear_5161_1229)"/>
<path d="M20.2515 17.7289L22.1835 16.0059C22.7002 16.3248 23.3236 16.519 24.0046 16.519C24.6835 16.519 25.3068 16.3248 25.8235 16.0059L27.7619 17.7289C26.987 18.9198 27.1386 20.5351 28.2081 21.595C29.2734 22.6487 30.8959 22.8049 32.1 22.0511L33.8057 23.9536C33.477 24.4645 33.2763 25.0874 33.2763 25.7673C33.2763 27.4903 34.523 28.886 36.0644 28.886C37.6079 28.886 38.8483 27.4903 38.8483 25.7673C38.8483 24.0465 37.6015 22.6487 36.0644 22.6487C35.4538 22.6487 34.8945 22.8746 34.4355 23.2483L32.7981 21.4198C33.7993 20.2162 33.7289 18.4278 32.5718 17.2791C31.419 16.1368 29.6193 16.0629 28.4045 17.0427L26.5408 15.383C26.9187 14.9269 27.1514 14.3674 27.1514 13.7614C27.1514 12.239 25.7402 10.9975 24.0046 10.9975C22.2668 10.9975 20.8557 12.2327 20.8557 13.7614C20.8557 14.3716 21.0884 14.9269 21.4662 15.383L19.6025 17.0363C18.4966 16.1263 16.9275 16.0629 15.7768 16.8611L14.5728 15.6195C15.2602 14.7285 15.3861 13.5988 14.9442 12.7268L16.5368 11.3902C17.5018 12.1335 18.9813 12.0532 20.0572 11.1284C21.2591 10.0938 21.479 8.40245 20.561 7.34882C20.0935 6.81251 19.421 6.55068 18.7165 6.55068C18.0099 6.55068 17.3054 6.80617 16.714 7.31715C15.6637 8.22298 15.3605 9.63134 15.9199 10.6744L14.3465 11.9899C13.3217 11.1664 11.7291 11.3226 10.6702 12.4016C9.56224 13.5313 9.48112 15.2331 10.4952 16.2065C11.3811 17.0617 12.8115 17.0617 13.9003 16.2804L15.0958 17.5156C14.1522 18.7445 14.2397 20.5034 15.3861 21.6394C16.6329 22.8746 18.6333 22.8873 19.8672 21.671C20.9453 20.6047 21.0713 18.9514 20.2515 17.7226V17.7289Z" fill="url(#paint1_linear_5161_1229)"/>
<path d="M11.8848 22.6487C10.3498 22.6487 9.09665 24.0465 9.09665 25.7673C9.09665 26.4726 9.31013 27.1145 9.66238 27.6339L8.38574 29.1246C7.92674 28.7804 7.37168 28.582 6.78032 28.6242C6.34054 28.6559 5.93705 28.8248 5.5912 29.0803L4.00927 27.2158C4.21849 26.7914 4.33804 26.2994 4.33804 25.7673C4.33804 25.2374 4.21208 24.72 3.9986 24.2893L5.50794 22.4565C5.84952 22.693 6.23807 22.8556 6.67358 22.8873C8.07618 22.9929 9.31013 21.802 9.42968 20.2289C9.54924 18.658 8.51169 17.3045 7.10695 17.1989C6.67998 17.1673 6.27649 17.2665 5.90503 17.4481L5.01693 15.9447C5.09378 15.8455 5.1749 15.7505 5.24322 15.6449C5.97334 14.5216 5.95626 13.299 5.19412 12.9126C5.03614 12.8324 4.86108 12.7944 4.67108 12.7944C3.95376 12.7944 3.07847 13.3497 2.49992 14.2407C1.7698 15.364 1.78901 16.5866 2.54262 16.973C3.02723 17.2222 3.70185 17.068 4.31242 16.6246L5.14288 18.0266C4.7031 18.5017 4.40635 19.1373 4.35085 19.8678C4.29321 20.5858 4.49602 21.2593 4.84827 21.7893L3.41791 23.5228C3.06566 23.204 2.63869 23.0182 2.17115 23.0182C0.969227 23.0182 0 24.2534 0 25.78C0 27.3087 0.975632 28.5439 2.17115 28.5439C2.6515 28.5439 3.08487 28.3434 3.44353 28.014L4.94221 29.7792C4.59636 30.3028 4.40635 30.9637 4.464 31.6689C4.58355 33.2399 5.8175 34.4266 7.2201 34.3189C8.62484 34.2133 9.66238 32.8598 9.54924 31.2889C9.50654 30.7399 9.32294 30.2395 9.04541 29.8235L10.3114 28.3434C10.7597 28.6875 11.3062 28.8923 11.8912 28.8923C13.4283 28.8923 14.6814 27.4967 14.6814 25.7737C14.6814 24.0528 13.4347 22.655 11.8912 22.655L11.8848 22.6487Z" fill="url(#paint2_linear_5161_1229)"/>
<path d="M45.91 23.0118C45.4318 23.0118 44.9984 23.2293 44.6461 23.5798L43.077 21.7576C43.4122 21.2339 43.6001 20.5857 43.5488 19.8868C43.4997 19.2069 43.2286 18.6136 42.8379 18.1469L43.5808 17.011C44.2234 17.5283 44.9536 17.7099 45.4638 17.391C46.2003 16.9307 46.2003 15.6195 45.4638 14.473C44.9023 13.5925 44.0783 13.0561 43.393 13.0561C43.1773 13.0561 42.9767 13.1068 42.8059 13.2187C42.0694 13.6811 42.0694 14.9839 42.8016 16.1368C42.8379 16.1938 42.8763 16.2445 42.9148 16.2931L42.1014 17.5346C41.7043 17.3108 41.2581 17.1925 40.7863 17.2284C39.3816 17.3361 38.344 18.6896 38.4636 20.2605C38.5831 21.8315 39.8171 23.0181 41.2197 22.9168C41.6744 22.8809 42.0758 22.712 42.4301 22.4502L44.0975 24.3969C43.9203 24.8023 43.8071 25.269 43.8071 25.7736C43.8071 27.3023 44.7465 28.5376 45.9036 28.5376C47.0628 28.5376 48 27.3023 48 25.7736C48 24.247 47.0628 23.0118 45.9036 23.0118H45.91Z" fill="url(#paint3_linear_5161_1229)"/>
<path d="M9.58117 10.799C10.2921 10.1571 10.6571 9.33995 10.6208 8.68328L12.4141 7.40583C12.9116 7.58742 13.6161 7.54307 14.3334 7.21791C15.531 6.67525 16.3038 5.58361 16.0711 4.77914C15.926 4.27449 15.4179 4 14.7689 4C14.3782 4 13.9384 4.09924 13.4901 4.29983C12.3074 4.83615 11.526 5.92145 11.7459 6.7196L10.1981 7.83024C9.55555 7.33615 8.37924 7.57475 7.44204 8.42779C6.42798 9.34628 6.08853 10.6237 6.67989 11.2783C7.27125 11.9329 8.57351 11.7217 9.58757 10.799H9.58117Z" fill="url(#paint4_linear_5161_1229)"/>
<path d="M45.0339 34.4878C44.5749 34.2766 43.9643 34.4265 43.3986 34.8193L42.7688 33.6199C43.2598 33.1406 43.5928 32.4544 43.6569 31.6816C43.7764 30.1085 42.7303 28.7487 41.332 28.6495C41.2765 28.6495 41.2189 28.6432 41.1634 28.6432C39.8291 28.6432 38.6891 29.7981 38.5759 31.3079C38.5247 31.9497 38.6826 32.5536 38.9666 33.0541L37.1093 34.9861C36.0888 34.3695 34.6478 34.587 33.6785 35.5857C32.5705 36.7154 32.4894 38.4172 33.5013 39.3906C34.3339 40.1888 35.649 40.2331 36.6994 39.5891L38.0721 41.3057C37.2907 42.1841 37.0089 43.2082 37.4487 43.7128C37.6195 43.9071 37.865 43.9937 38.1596 44H38.1852C38.7574 44 39.5003 43.6558 40.1557 43.0456C41.1505 42.1102 41.5668 40.9003 41.0758 40.3323C40.6467 39.8467 39.6839 40.0008 38.783 40.6639L37.4359 38.9852C38.3304 37.9802 38.4692 36.5971 37.8009 35.6364L39.5772 33.7889C39.9486 34.1014 40.4012 34.3062 40.905 34.3378C41.2829 34.3632 41.648 34.2956 41.981 34.152L42.6855 35.4992C42.5788 35.6301 42.4848 35.7673 42.3909 35.9172C41.6992 37.0574 41.7547 38.2673 42.5169 38.6242C43.2854 38.9789 44.4617 38.3433 45.1598 37.201C45.8536 36.0608 45.796 34.8488 45.0339 34.4941V34.4878Z" fill="url(#paint5_linear_5161_1229)"/>
<defs>
<linearGradient id="paint0_linear_5161_1229" x1="0" y1="25.5156" x2="47.9134" y2="25.5156" gradientUnits="userSpaceOnUse">
<stop stop-color="#00E4EB"/>
<stop offset="1" stop-color="#000DEC"/>
</linearGradient>
<linearGradient id="paint1_linear_5161_1229" x1="0" y1="25.5156" x2="47.9134" y2="25.5156" gradientUnits="userSpaceOnUse">
<stop stop-color="#00E4EB"/>
<stop offset="1" stop-color="#000DEC"/>
</linearGradient>
<linearGradient id="paint2_linear_5161_1229" x1="0" y1="25.5156" x2="47.9134" y2="25.5156" gradientUnits="userSpaceOnUse">
<stop stop-color="#00E4EB"/>
<stop offset="1" stop-color="#000DEC"/>
</linearGradient>
<linearGradient id="paint3_linear_5161_1229" x1="0" y1="25.5156" x2="47.9134" y2="25.5156" gradientUnits="userSpaceOnUse">
<stop stop-color="#00E4EB"/>
<stop offset="1" stop-color="#000DEC"/>
</linearGradient>
<linearGradient id="paint4_linear_5161_1229" x1="0" y1="25.5156" x2="47.9134" y2="25.5156" gradientUnits="userSpaceOnUse">
<stop stop-color="#00E4EB"/>
<stop offset="1" stop-color="#000DEC"/>
</linearGradient>
<linearGradient id="paint5_linear_5161_1229" x1="0" y1="25.5156" x2="47.9134" y2="25.5156" gradientUnits="userSpaceOnUse">
<stop stop-color="#00E4EB"/>
<stop offset="1" stop-color="#000DEC"/>
</linearGradient>
</defs>
</svg>
