<svg width="48" height="48" viewBox="0 0 48 48" fill="none" xmlns="http://www.w3.org/2000/svg">
<path d="M32.556 4C34.868 4 36.742 5.854 36.742 8.14V33.142C36.7581 33.5251 36.9221 33.8869 37.1997 34.1514C37.4772 34.4159 37.8466 34.5624 38.23 34.56C38.613 34.5619 38.9819 34.4152 39.259 34.1507C39.5362 33.8863 39.7 33.5247 39.716 33.142V18.198C39.7189 17.657 39.8283 17.1218 40.038 16.623C40.2477 16.1243 40.5536 15.6717 40.9383 15.2911C41.3229 14.9106 41.7787 14.6096 42.2797 14.4052C42.7806 14.2008 43.317 14.0971 43.858 14.1C44.3992 14.0971 44.9357 14.2009 45.4368 14.4054C45.9379 14.6099 46.3938 14.9111 46.7784 15.2919C47.1631 15.6726 47.469 16.1254 47.6786 16.6244C47.8881 17.1234 47.9974 17.6588 48 18.2V31.322C47.9979 31.6659 47.8594 31.9949 47.6149 32.2368C47.3704 32.4786 47.0399 32.6136 46.696 32.612C46.5255 32.6131 46.3565 32.5805 46.1987 32.5163C46.0408 32.452 45.8971 32.3573 45.7758 32.2375C45.6546 32.1177 45.5581 31.9752 45.4919 31.8181C45.4257 31.661 45.391 31.4925 45.39 31.322V18.2C45.389 17.9999 45.3485 17.8019 45.2709 17.6174C45.1934 17.4329 45.0802 17.2655 44.938 17.1247C44.7957 16.9839 44.6271 16.8726 44.4418 16.7969C44.2565 16.7213 44.0581 16.6829 43.858 16.684C43.6579 16.6829 43.4595 16.7213 43.2742 16.7969C43.0889 16.8726 42.9203 16.9839 42.778 17.1247C42.6358 17.2655 42.5226 17.4329 42.4451 17.6174C42.3675 17.8019 42.327 17.9999 42.326 18.2V33.144C42.3231 33.679 42.2149 34.2082 42.0075 34.7014C41.8001 35.1946 41.4976 35.6421 41.1172 36.0183C40.7369 36.3946 40.2861 36.6923 39.7907 36.8943C39.2953 37.0964 38.765 37.1989 38.23 37.196C37.695 37.1989 37.1647 37.0964 36.6693 36.8943C36.1739 36.6923 35.7231 36.3946 35.3428 36.0183C34.9624 35.6421 34.6599 35.1946 34.4525 34.7014C34.2451 34.2082 34.1369 33.679 34.134 33.144V8.144C34.1174 7.73776 33.9439 7.35379 33.65 7.0729C33.356 6.79201 32.9646 6.63611 32.558 6.638C32.1514 6.63557 31.7597 6.79097 31.4654 7.07149C31.1711 7.35201 30.9971 7.73577 30.98 8.142L30.978 39.95C30.9717 41.0302 30.5366 42.0636 29.7685 42.823C29.0004 43.5825 27.9622 44.0059 26.882 44C26.347 44.0029 25.8167 43.9004 25.3213 43.6983C24.8259 43.4963 24.3751 43.1986 23.9948 42.8223C23.6144 42.4461 23.3119 41.9986 23.1045 41.5054C22.8971 41.0122 22.7889 40.483 22.786 39.948V36.08C22.786 35.368 23.37 34.79 24.09 34.79C24.81 34.79 25.394 35.368 25.394 36.08V39.948C25.394 40.474 25.678 40.96 26.138 41.224C26.598 41.486 27.166 41.486 27.626 41.224C27.8517 41.096 28.0395 40.9105 28.1702 40.6864C28.3009 40.4622 28.3698 40.2075 28.37 39.948V8.14C28.37 5.854 30.244 4 32.556 4ZM21.208 4C23.52 4 25.394 5.854 25.394 8.14V31.186C25.3932 31.3564 25.3588 31.5249 25.2929 31.682C25.2269 31.839 25.1306 31.9816 25.0095 32.1014C24.8883 32.2212 24.7448 32.3159 24.587 32.3802C24.4293 32.4445 24.2604 32.4771 24.09 32.476C23.9196 32.4771 23.7507 32.4445 23.593 32.3802C23.4352 32.3159 23.2916 32.2212 23.1705 32.1014C23.0494 31.9816 22.9531 31.839 22.8871 31.682C22.8212 31.5249 22.7868 31.3564 22.786 31.186V8.14C22.7834 7.72396 22.6157 7.32597 22.3198 7.03347C22.0239 6.74097 21.624 6.57787 21.208 6.58C20.792 6.57787 20.3921 6.74097 20.0962 7.03347C19.8003 7.32597 19.6326 7.72396 19.63 8.14V36.166C19.6237 37.258 19.184 38.3028 18.4077 39.0709C17.6315 39.8389 16.582 40.2673 15.49 40.262C14.3976 40.2679 13.3477 39.8397 12.571 39.0716C11.7942 38.3035 11.3543 37.2583 11.348 36.166V18.2C11.347 17.9999 11.3065 17.8019 11.2289 17.6174C11.1514 17.4329 11.0382 17.2655 10.896 17.1247C10.7537 16.9839 10.5851 16.8726 10.3998 16.7969C10.2145 16.7213 10.0161 16.6829 9.816 16.684C9.61586 16.6829 9.41748 16.7213 9.23218 16.7969C9.04688 16.8726 8.87828 16.9839 8.73602 17.1247C8.59376 17.2655 8.48062 17.4329 8.40306 17.6174C8.32551 17.8019 8.28505 17.9999 8.284 18.2V25.8C8.28112 26.341 8.1717 26.8762 7.96198 27.375C7.75226 27.8737 7.44636 28.3263 7.06174 28.7069C6.67712 29.0874 6.22131 29.3884 5.72034 29.5928C5.21937 29.7972 4.68305 29.9009 4.142 29.898C3.60095 29.9009 3.06463 29.7972 2.56366 29.5928C2.06269 29.3884 1.60688 29.0874 1.22226 28.7069C0.837637 28.3263 0.531736 27.8737 0.32202 27.375C0.112304 26.8762 0.00288138 26.341 0 25.8L0 23.044C0 22.33 0.584 21.752 1.304 21.752C2.024 21.752 2.61 22.332 2.61 23.044V25.8C2.61 26.636 3.296 27.314 4.142 27.314C4.988 27.314 5.674 26.636 5.674 25.8V18.198C5.68035 17.106 6.11997 16.0612 6.89626 15.2931C7.67254 14.5251 8.72199 14.0967 9.814 14.102C10.9064 14.0961 11.9563 14.5243 12.733 15.2924C13.5098 16.0605 13.9497 17.1057 13.956 18.198V36.166C13.956 37.004 14.642 37.682 15.49 37.682C16.336 37.682 17.022 37.004 17.022 36.166V8.14C17.022 5.854 18.896 4 21.208 4Z" fill="url(#paint0_linear_3107_1237)"/>
<defs>
<linearGradient id="paint0_linear_3107_1237" x1="0" y1="24.028" x2="48.088" y2="24.028" gradientUnits="userSpaceOnUse">
<stop stop-color="#E2167E"/>
<stop offset="1" stop-color="#FE603C"/>
</linearGradient>
</defs>
</svg>
