<svg width="48" height="48" viewBox="0 0 48 48" fill="none" xmlns="http://www.w3.org/2000/svg">
<path d="M22.2523 37.0542H30.2305C31.0759 36.9521 31.8579 36.5559 32.4389 35.9354C33.0198 35.3149 33.3623 34.5099 33.4061 33.6623V22.2517C33.4061 20.7381 32.1685 19.5125 30.642 19.5125C29.117 19.5125 27.8794 20.7381 27.8794 22.2517V29.4956C27.8745 30.0386 27.6551 30.5577 27.2689 30.9406C26.8826 31.3235 26.3606 31.5394 25.8158 31.5414H22.2146C21.4836 31.5422 20.7827 31.8312 20.2648 32.3453C19.7469 32.8594 19.4542 33.5568 19.4504 34.2853V34.3229C19.4596 35.055 19.7596 35.7537 20.2849 36.2658C20.8101 36.7778 21.5176 37.0613 22.2523 37.0542ZM17.47 28.6895C17.0874 28.6906 16.7084 28.6165 16.3545 28.4715C16.0007 28.3265 15.679 28.1135 15.4077 27.8446C15.1364 27.5757 14.921 27.2562 14.7736 26.9044C14.6263 26.5525 14.5499 26.1751 14.5489 25.7938V14.3847C14.5966 13.4978 14.9559 12.6558 15.5637 12.0063C16.1715 11.3567 16.9892 10.9409 17.8736 10.8316H25.8707C26.6454 10.8306 27.3895 11.1326 27.9431 11.6726C28.4966 12.2127 28.8155 12.9476 28.8312 13.7195C28.839 14.4943 28.5359 15.2409 27.9878 15.7919C27.4381 16.3444 26.6905 16.6559 25.9084 16.659H22.2884C21.2361 16.659 20.3833 17.5043 20.3833 18.5483V25.7922C20.3833 27.3888 19.0798 28.6848 17.4685 28.688L17.47 28.6895Z" fill="#8D40EE"/>
<path d="M27.1285 5.84781C30.1855 5.84316 33.1193 7.0479 35.2858 9.19744C36.3545 10.258 37.2016 11.5194 37.7779 12.9084C38.3543 14.2975 38.6485 15.7866 38.6435 17.2898V39.2408C38.5092 39.985 38.1419 40.6677 37.5943 41.191C37.0466 41.7143 36.3468 42.0513 35.5952 42.1538H20.87C17.8188 42.1569 14.8905 40.956 12.7252 38.8135C11.6574 37.756 10.8102 36.4983 10.2323 35.1129C9.65437 33.7275 9.35726 32.2419 9.35804 30.7415V9.3978C9.35715 8.45694 9.72877 7.55372 10.3922 6.88435C11.0556 6.21497 11.9572 5.83349 12.9011 5.82277L27.1285 5.84781ZM12.6781 4.02969e-05C7.60848 0.010997 3.50314 4.08534 3.5 9.10822V30.8495C3.5004 33.106 3.94899 35.34 4.8199 37.4228C5.69082 39.5056 6.96683 41.396 8.57435 42.9849C11.8327 46.2056 16.2385 48.0089 20.8275 48H36.1605C40.5297 47.6509 44.032 44.27 44.5 39.9499V17.1207C44.4971 14.8667 44.0467 12.6355 43.1747 10.5557C42.3028 8.47585 41.0265 6.58858 39.4194 5.00258C36.1632 1.78872 31.763 -0.00981588 27.1803 4.02969e-05H12.6781Z" fill="#8D40EE"/>
</svg>
